<svg xmlns="http://www.w3.org/2000/svg" width="2054.164" height="1156.41" viewBox="0 0 2054.164 1156.41">
  <g id="bggallery" transform="translate(0.395 0.491)">
    <line id="Line_41" data-name="Line 41" x2="1361.281" y2="1155.431" transform="translate(199.968)" fill="none" stroke="#707070" stroke-width="1"/>
    <line id="Line_42" data-name="Line 42" y1="572.289" x2="490.756" transform="translate(993.5 101.141)" fill="none" stroke="#707070" stroke-width="1"/>
    <line id="Line_43" data-name="Line 43" x1="319.735" y1="179.196" transform="translate(1097.151)" fill="none" stroke="#707070" stroke-width="1"/>
    <line id="Line_44" data-name="Line 44" y1="104.44" x2="553.922" transform="translate(1283.218)" fill="none" stroke="#707070" stroke-width="1"/>
    <line id="Line_45" data-name="Line 45" x2="568.893" y2="51.67" transform="translate(1484.256 101.141)" fill="none" stroke="#707070" stroke-width="1"/>
    <line id="Line_46" data-name="Line 46" x2="153.986" y2="511.204" transform="translate(1899.163 139.619)" fill="none" stroke="#707070" stroke-width="1"/>
    <line id="Line_47" data-name="Line 47" x1="819.121" y2="562.874" transform="translate(1097.151 200.084)" fill="none" stroke="#707070" stroke-width="1"/>
    <line id="Line_48" data-name="Line 48" x2="994.494" y2="74.757" transform="translate(1058.655 598.054)" fill="none" stroke="#707070" stroke-width="1"/>
    <line id="Line_49" data-name="Line 49" x1="790.248" y2="527.694" transform="translate(148.639 627.736)" fill="none" stroke="#707070" stroke-width="1"/>
    <line id="Line_50" data-name="Line 50" x2="704.701" y2="114.334" transform="translate(321.874 1039.998)" fill="none" stroke="#707070" stroke-width="1"/>
    <line id="Line_51" data-name="Line 51" y1="283.636" x2="694.007" transform="translate(528.258 870.696)" fill="none" stroke="#707070" stroke-width="1"/>
    <path id="Path_27" data-name="Path 27" d="M548.025,238.236,0,0" transform="translate(0 650.823)" fill="none" stroke="#707070" stroke-width="1"/>
    <line id="Line_53" data-name="Line 53" y1="178.097" x2="580.656" transform="translate(358.232 627.736)" fill="none" stroke="#707070" stroke-width="1"/>
    <line id="Line_54" data-name="Line 54" x1="178.107" y1="542.34" transform="translate(422.393 189.091)" fill="none" stroke="#707070" stroke-width="1"/>
    <line id="Line_55" data-name="Line 55" x1="220.286" y2="13.192" transform="translate(186.067 175.898)" fill="none" stroke="#707070" stroke-width="1"/>
    <line id="Line_56" data-name="Line 56" x2="26.734" y2="189.091" transform="translate(159.333)" fill="none" stroke="#707070" stroke-width="1"/>
    <line id="Line_57" data-name="Line 57" x1="174.838" y2="200.382" transform="translate(0 108.539)" fill="none" stroke="#707070" stroke-width="1"/>
    <line id="Line_58" data-name="Line 58" x1="109.074" y2="504.608" transform="translate(98.38 187.991)" fill="none" stroke="#707070" stroke-width="1"/>
    <line id="Line_59" data-name="Line 59" x1="127.252" y1="163.805" fill="none" stroke="#707070" stroke-width="1"/>
    <line id="Line_60" data-name="Line 60" y1="175.898" x2="242.742" transform="translate(406.352)" fill="none" stroke="#707070" stroke-width="1"/>
    <line id="Line_61" data-name="Line 61" x2="146.501" y2="156.11" transform="translate(575.309 53.869)" fill="none" stroke="#707070" stroke-width="1"/>
    <line id="Line_62" data-name="Line 62" y1="56.068" x2="209.592" transform="translate(512.218 209.978)" fill="none" stroke="#707070" stroke-width="1"/>
    <line id="Line_63" data-name="Line 63" y1="175.898" x2="519.703" transform="translate(406.352)" fill="none" stroke="#707070" stroke-width="1"/>
    <line id="Line_64" data-name="Line 64" x1="118.698" y1="153.911" transform="translate(317.596)" fill="none" stroke="#707070" stroke-width="1"/>
    <line id="Line_65" data-name="Line 65" y1="32.981" x2="330.429" transform="translate(1506.712 1075.177)" fill="none" stroke="#707070" stroke-width="1"/>
    <line id="Line_66" data-name="Line 66" y1="80.254" x2="275.892" transform="translate(1561.249 1075.177)" fill="none" stroke="#707070" stroke-width="1"/>
    <line id="Line_67" data-name="Line 67" x2="278.031" y2="62.664" transform="translate(1775.118 1092.767)" fill="none" stroke="#707070" stroke-width="1"/>
    <line id="Line_68" data-name="Line 68" y1="93.446" x2="136.877" transform="translate(1916.272 1031.203)" fill="none" stroke="#707070" stroke-width="1"/>
    <line id="Line_69" data-name="Line 69" x1="180.805" y1="215.901" transform="translate(1057.5 938.431)" fill="none" stroke="#707070" stroke-width="1"/>
    <line id="Line_70" data-name="Line 70" y1="489.217" x2="568.893" transform="translate(1465.007 584.861)" fill="none" stroke="#707070" stroke-width="1"/>
    <line id="Line_73" data-name="Line 73" y1="163.61" x2="434.155" transform="translate(820.725 88.221)" fill="none" stroke="#707070" stroke-width="1"/>
    <line id="Line_74" data-name="Line 74" y1="173.234" x2="65.23" transform="translate(941.561 0.535)" fill="none" stroke="#707070" stroke-width="1"/>
    <line id="Line_75" data-name="Line 75" y1="269.476" x2="105.865" transform="translate(740.524 188.74)" fill="none" stroke="#707070" stroke-width="1"/>
    <path id="Path_23" data-name="Path 23" d="M1.384,36.154,221.259,0" transform="translate(720.302 173.769)" fill="none" stroke="#707070" stroke-width="1"/>
    <path id="Path_26" data-name="Path 26" d="M643.281,111.92-147.462-25.622" transform="translate(1410.403 674.586)" fill="none" stroke="#707070" stroke-width="1"/>
    <line id="Line_77" data-name="Line 77" y1="457.681" x2="251.297" transform="translate(1292.307 697.75)" fill="none" stroke="#707070" stroke-width="1"/>
  </g>
</svg>
