<svg xmlns="http://www.w3.org/2000/svg" width="55.286" height="35.996" viewBox="0 0 55.286 35.996">
  <path id="emailsvg" d="M62.2,56.467a.952.952,0,0,0,.051-.294V22.1a.945.945,0,0,0-.051-.3c0-.013-.007-.026-.012-.038a.957.957,0,0,0-.177-.3C62,21.465,62,21.458,62,21.452l-.01-.008a.964.964,0,0,0-.283-.207l-.023-.013a.949.949,0,0,0-.328-.079c-.012,0-.022,0-.034,0s-.021,0-.031,0H7.927c-.011,0-.021,0-.032,0l-.031,0a.96.96,0,0,0-.332.08l-.018.01a.951.951,0,0,0-.287.21s-.007,0-.01.007-.006.012-.011.018a.962.962,0,0,0-.178.3c-.005.013-.008.026-.012.039a.945.945,0,0,0-.051.3V56.174a.952.952,0,0,0,.053.3c0,.013.007.025.012.038a.962.962,0,0,0,.18.3c0,.005.006.012.01.017s.009.007.013.012a.973.973,0,0,0,.1.09c.016.012.03.027.047.038a.892.892,0,0,0,.135.075c.012.005.022.013.033.018a.963.963,0,0,0,.378.078H61.287a.952.952,0,0,0,.378-.078c.018-.008.035-.019.052-.028a.982.982,0,0,0,.116-.065c.019-.013.037-.031.055-.046a.881.881,0,0,0,.093-.083L62,56.821c.005-.006.006-.013.012-.019a.962.962,0,0,0,.176-.294A.352.352,0,0,0,62.2,56.467ZM8.889,24.282,25.08,39.072,8.889,53.98ZM42.075,38.347a.918.918,0,0,0-.193.142c-.021.023-.028.053-.047.078l-7.228,6.6-24.2-22.106h48.4ZM26.507,40.374l7.452,6.806a.961.961,0,0,0,1.3,0l7.359-6.722L58.8,55.211H10.392Zm17.535-1.219L60.326,24.282V54Z" transform="translate(-6.964 -21.139)" fill="#fff"/>
</svg>
