<svg id="ikona" xmlns="http://www.w3.org/2000/svg" width="40" height="40" viewBox="0 0 40 40">
  <rect id="Rectangle_51" data-name="Rectangle 51" width="40" height="40" fill="#ffa987"/>
  <path id="Home" d="M21.867,26.357H4.473A1.318,1.318,0,0,1,3.155,25.04V11.261L.888,13.517.14,12.769,12.791.118a.527.527,0,0,1,.748,0L26.19,12.769l-.748.748-2.256-2.224V25a1.318,1.318,0,0,1-1.318,1.36ZM16.86,25.3h5.008a.264.264,0,0,0,.264-.264V10.228l-8.95-8.961-8.971,8.95V25.04a.264.264,0,0,0,.264.264H9.48V19.241A1.318,1.318,0,0,1,10.8,17.924h4.744a1.318,1.318,0,0,1,1.318,1.318Zm-6.325,0h5.271V19.241a.264.264,0,0,0-.264-.264H10.8a.264.264,0,0,0-.264.264Z" transform="translate(6.64 6.898)" fill="#fff"/>
</svg>
