<svg xmlns="http://www.w3.org/2000/svg" width="1920.893" height="1291.941" viewBox="0 0 1920.893 1291.941">
  <g id="linie" transform="translate(-0.089 -4009.017)">
    <line id="Line_41" data-name="Line 41" x2="1273" y2="1209.973" transform="translate(187.5 4090.5)" fill="#A19F9C" stroke="#707070" stroke-width="1"/>
    <line id="Line_42" data-name="Line 42" y1="598.654" x2="458" transform="translate(930.5 4196.416)" fill="#A19F9C" stroke="#707070" stroke-width="1"/>
    <line id="Line_43" data-name="Line 43" x1="299" y1="187.655" transform="translate(1026.5 4090.5)" fill="#A19F9C" stroke="#707070" stroke-width="1"/>
    <line id="Line_44" data-name="Line 44" y1="190.37" x2="720" transform="translate(1200.5 4009.5)" fill="#A19F9C" stroke="#707070" stroke-width="1"/>
    <line id="Line_45" data-name="Line 45" x2="532" y2="54.109" transform="translate(1388.5 4196.416)" fill="#A19F9C" stroke="#707070" stroke-width="1"/>
    <line id="Line_46" data-name="Line 46" x2="193" y2="711.545" transform="translate(1727.5 4060.5)" fill="#A19F9C" stroke="#707070" stroke-width="1"/>
    <line id="Line_47" data-name="Line 47" x1="766" y2="589.444" transform="translate(1026.5 4300.029)" fill="#A19F9C" stroke="#707070" stroke-width="1"/>
    <line id="Line_48" data-name="Line 48" x2="930" y2="78.286" transform="translate(990.5 4716.785)" fill="#A19F9C" stroke="#707070" stroke-width="1"/>
    <line id="Line_49" data-name="Line 49" x1="739" y2="552.604" transform="translate(139.5 4747.869)" fill="#A19F9C" stroke="#707070" stroke-width="1"/>
    <line id="Line_50" data-name="Line 50" x2="659" y2="119.731" transform="translate(301.5 5179.59)" fill="#A19F9C" stroke="#707070" stroke-width="1"/>
    <line id="Line_51" data-name="Line 51" y1="298.788" x2="651" transform="translate(494.5 5000.533)" fill="#A19F9C" stroke="#707070" stroke-width="1"/>
    <line id="Line_52" data-name="Line 52" x1="513" y1="248.672" transform="translate(0.5 4772.045)" fill="#A19F9C" stroke="#707070" stroke-width="1"/>
    <line id="Line_53" data-name="Line 53" y1="186.504" x2="543" transform="translate(335.5 4747.869)" fill="#A19F9C" stroke="#707070" stroke-width="1"/>
    <line id="Line_54" data-name="Line 54" x1="167" y1="568.722" transform="translate(395.5 4288.517)" fill="#A19F9C" stroke="#707070" stroke-width="1"/>
    <line id="Line_55" data-name="Line 55" x1="206" y2="13.815" transform="translate(174.5 4274.701)" fill="#A19F9C" stroke="#707070" stroke-width="1"/>
    <line id="Line_56" data-name="Line 56" x2="25" y2="198.016" transform="translate(149.5 4090.5)" fill="#A19F9C" stroke="#707070" stroke-width="1"/>
    <line id="Line_57" data-name="Line 57" x1="164" y2="209.749" transform="translate(0.5 4204.254)" fill="#A19F9C" stroke="#707070" stroke-width="1"/>
    <line id="Line_58" data-name="Line 58" x1="102" y2="528.428" transform="translate(92.5 4287.365)" fill="#A19F9C" stroke="#707070" stroke-width="1"/>
    <line id="Line_59" data-name="Line 59" x1="119" y1="171.538" transform="translate(0.5 4090.5)" fill="#A19F9C" stroke="#707070" stroke-width="1"/>
    <line id="Line_60" data-name="Line 60" y1="184.201" x2="227" transform="translate(380.5 4090.5)" fill="#A19F9C" stroke="#707070" stroke-width="1"/>
    <line id="Line_61" data-name="Line 61" x2="137" y2="163.479" transform="translate(538.5 4146.912)" fill="#A19F9C" stroke="#707070" stroke-width="1"/>
    <line id="Line_62" data-name="Line 62" y1="58.714" x2="196" transform="translate(479.5 4310.39)" fill="#A19F9C" stroke="#707070" stroke-width="1"/>
    <line id="Line_63" data-name="Line 63" y1="184.201" x2="486" transform="translate(380.5 4090.5)" fill="#A19F9C" stroke="#707070" stroke-width="1"/>
    <line id="Line_64" data-name="Line 64" x1="111" y1="161.176" transform="translate(297.5 4090.5)" fill="#A19F9C" stroke="#707070" stroke-width="1"/>
    <line id="Line_65" data-name="Line 65" y1="34.538" x2="309" transform="translate(1409.5 5216.431)" fill="#A19F9C" stroke="#707070" stroke-width="1"/>
    <line id="Line_66" data-name="Line 66" y1="84.042" x2="258" transform="translate(1460.5 5216.431)" fill="#A19F9C" stroke="#707070" stroke-width="1"/>
    <line id="Line_67" data-name="Line 67" x2="260" y2="65.622" transform="translate(1660.5 5234.851)" fill="#A19F9C" stroke="#707070" stroke-width="1"/>
    <line id="Line_68" data-name="Line 68" y1="97.857" x2="128" transform="translate(1792.5 5170.381)" fill="#A19F9C" stroke="#707070" stroke-width="1"/>
    <line id="Line_69" data-name="Line 69" x1="170" y1="226.202" transform="translate(988.5 5073.119)" fill="#A19F9C" stroke="#707070" stroke-width="1"/>
    <line id="Line_70" data-name="Line 70" y1="512.31" x2="532" transform="translate(1370.5 4702.969)" fill="#A19F9C" stroke="#707070" stroke-width="1"/>
  </g>
</svg>
