<svg xmlns="http://www.w3.org/2000/svg" width="1920.868" height="1051.979" viewBox="0 0 1920.868 1051.979">
  <g id="linie-gallery" transform="translate(-0.109 -4090.009)">
    <line id="Line_41" data-name="Line 41" x2="1273" y2="1051" transform="translate(187.5 4090.5)" fill="none" stroke="#707070" stroke-width="1"/>
    <line id="Line_42" data-name="Line 42" y1="520" x2="458" transform="translate(930.5 4182.5)" fill="none" stroke="#707070" stroke-width="1"/>
    <line id="Line_43" data-name="Line 43" x1="222" y1="163" transform="translate(1103.5 4090.5)" fill="none" stroke="#707070" stroke-width="1"/>
    <line id="Line_44" data-name="Line 44" y1="90" x2="463" transform="translate(1225.5 4090.5)" fill="none" stroke="#707070" stroke-width="1"/>
    <line id="Line_45" data-name="Line 45" x2="532" y2="47" transform="translate(1388.5 4182.5)" fill="none" stroke="#707070" stroke-width="1"/>
    <line id="Line_46" data-name="Line 46" x2="144" y2="465" transform="translate(1776.5 4217.5)" fill="none" stroke="#707070" stroke-width="1"/>
    <line id="Line_47" data-name="Line 47" x1="766" y2="512" transform="translate(1026.5 4272.5)" fill="none" stroke="#707070" stroke-width="1"/>
    <line id="Line_48" data-name="Line 48" x2="930" y2="68" transform="translate(990.5 4634.5)" fill="none" stroke="#707070" stroke-width="1"/>
    <line id="Line_49" data-name="Line 49" x1="739" y2="480" transform="translate(139.5 4661.5)" fill="none" stroke="#707070" stroke-width="1"/>
    <line id="Line_50" data-name="Line 50" x2="659" y2="104" transform="translate(301.5 5036.5)" fill="none" stroke="#707070" stroke-width="1"/>
    <line id="Line_51" data-name="Line 51" y1="258" x2="649" transform="translate(494.5 4882.5)" fill="none" stroke="#707070" stroke-width="1"/>
    <line id="Line_52" data-name="Line 52" x1="516" y1="219" transform="translate(0.5 4682.5)" fill="none" stroke="#707070" stroke-width="1"/>
    <line id="Line_53" data-name="Line 53" y1="162" x2="543" transform="translate(335.5 4661.5)" fill="none" stroke="#707070" stroke-width="1"/>
    <line id="Line_54" data-name="Line 54" x1="168" y1="497" transform="translate(395.5 4262.5)" fill="none" stroke="#707070" stroke-width="1"/>
    <line id="Line_55" data-name="Line 55" x1="206" y2="12" transform="translate(174.5 4250.5)" fill="none" stroke="#707070" stroke-width="1"/>
    <line id="Line_56" data-name="Line 56" x2="25" y2="172" transform="translate(149.5 4090.5)" fill="none" stroke="#707070" stroke-width="1"/>
    <line id="Line_57" data-name="Line 57" x1="162" y2="181" transform="translate(0.5 4190.5)" fill="none" stroke="#707070" stroke-width="1"/>
    <line id="Line_58" data-name="Line 58" x1="102" y2="459" transform="translate(92.5 4261.5)" fill="none" stroke="#707070" stroke-width="1"/>
    <line id="Line_59" data-name="Line 59" x1="119" y1="149" transform="translate(0.5 4090.5)" fill="none" stroke="#707070" stroke-width="1"/>
    <line id="Line_60" data-name="Line 60" y1="160" x2="178" transform="translate(380.5 4090.5)" fill="none" stroke="#707070" stroke-width="1"/>
    <line id="Line_61" data-name="Line 61" x2="154" y2="158" transform="translate(521.5 4123.5)" fill="none" stroke="#707070" stroke-width="1"/>
    <line id="Line_62" data-name="Line 62" y1="51" x2="196" transform="translate(479.5 4281.5)" fill="none" stroke="#707070" stroke-width="1"/>
    <line id="Line_63" data-name="Line 63" y1="160" x2="486" transform="translate(380.5 4090.5)" fill="none" stroke="#707070" stroke-width="1"/>
    <line id="Line_64" data-name="Line 64" x1="168" y1="137" transform="translate(238.5 4090.5)" fill="none" stroke="#707070" stroke-width="1"/>
    <line id="Line_65" data-name="Line 65" y1="30" x2="309" transform="translate(1409.5 5068.5)" fill="none" stroke="#707070" stroke-width="1"/>
    <line id="Line_66" data-name="Line 66" y1="73" x2="258" transform="translate(1460.5 5068.5)" fill="none" stroke="#707070" stroke-width="1"/>
    <line id="Line_67" data-name="Line 67" x2="260" y2="57" transform="translate(1660.5 5084.5)" fill="none" stroke="#707070" stroke-width="1"/>
    <line id="Line_68" data-name="Line 68" y1="85" x2="128" transform="translate(1792.5 5028.5)" fill="none" stroke="#707070" stroke-width="1"/>
    <line id="Line_69" data-name="Line 69" x1="168" y1="195" transform="translate(990.5 4945.5)" fill="none" stroke="#707070" stroke-width="1"/>
    <line id="Line_70" data-name="Line 70" y1="445" x2="532" transform="translate(1370.5 4622.5)" fill="none" stroke="#707070" stroke-width="1"/>
  </g>
</svg>
