<svg xmlns="http://www.w3.org/2000/svg" width="80" height="80" viewBox="0 0 80 80">
  <g id="logo_1" transform="translate(-10 -10)">
    <path id="Path_2" data-name="Path 2" d="M89,10H11a1,1,0,0,0-1,1V89a1,1,0,0,0,1,1H89a1,1,0,0,0,1-1V11A1,1,0,0,0,89,10ZM88,48.461H63.634V12H88ZM37.816,31.722H61.634V68.471H37.816Zm23.817-2H37.816V12H61.634V29.722ZM37.816,70.471H61.634V88H37.816ZM35.816,12V30.451a.7.7,0,0,0,0,.542V48.461H12V12ZM12,50.461H35.816V69.2a.7.7,0,0,0,0,.542V88H12ZM63.634,88V50.461H88V88Z" fill="#ff946a"/>
  </g>
</svg>
