<svg xmlns="http://www.w3.org/2000/svg" width="80.1" height="79.5" viewBox="0 0 80.1 79.5">
  <g id="logo_glaze" transform="translate(-81 -6.7)">
    <path id="Path_1" data-name="Path 1" d="M90,61.9a1.425,1.425,0,0,0-.6-1.2L84.2,57l5.1-3.6a1.5,1.5,0,0,0,0-2.4L76.6,41.9V11.2a1.538,1.538,0,0,0-1.5-1.5H32.7a1.538,1.538,0,0,0-1.5,1.5V30.9H11.5A1.538,1.538,0,0,0,10,32.4V74.7a1.538,1.538,0,0,0,1.5,1.5H47.3L65.1,88.9a1.5,1.5,0,0,0,1.8,0L89.5,72.8a1.5,1.5,0,0,0,0-2.4l-5.1-3.6,5.1-3.6A2.947,2.947,0,0,0,90,61.9ZM65.9,66.5l-20-14.3,20-14.3,20,14.3ZM42.5,63.1l5.1,3.6-5.1,3.6a1.5,1.5,0,0,0,0,2.4l.6.4H33.4V54.3H43.7L47.6,57l-5.1,3.6a1.425,1.425,0,0,0-.6,1.2A1.486,1.486,0,0,0,42.5,63.1Zm0-12.1a1.425,1.425,0,0,0-.6,1.2,1.268,1.268,0,0,0,.1.6H33.4V33.7a1.205,1.205,0,0,0,.5-.5H53V43.5ZM13,33.9H31.9V52.8H13ZM73.6,12.7V31.6H54.7V12.7Zm-39.4,0H53.1V31.6H34.2ZM54.7,33.1H73.6v6.6l-6.8-4.9a1.354,1.354,0,0,0-1.7,0L54.7,42.2V33.1ZM13,73.2V54.3H31.9V73.2Zm72.9-1.6-20,14.3-20-14.3,4.2-3L65,79.2a1.5,1.5,0,0,0,1.8,0L81.7,68.6Zm-20,4.6-20-14.3,4.2-3L65,69.5a1.5,1.5,0,0,0,1.8,0L81.7,58.9l4.2,3Z" transform="translate(71 -3)" fill="#ff946a"/>
  </g>
</svg>
