<svg xmlns="http://www.w3.org/2000/svg" width="127" height="128.175" viewBox="0 0 127 128.175">
  <g id="mapa" transform="translate(-1 -0.858)">
    <path id="Path_17" data-name="Path 17" d="M43.323,1.213,1,6.856V129.033l42.354-11.3,42.161,10.541L128,122.611V.858L85.656,6.5ZM122.708,6.9V117.978L85.817,122.9,43.312,112.271l-37.02,9.872V11.486l37.052-4.94,42.333,5.292Z" transform="translate(0 0)" fill="#ffa987"/>
    <path id="Path_18" data-name="Path 18" d="M39.532,81.9l1.926,2.043,1.926-2.04c1-1.064,24.532-26.255,24.532-46.8C67.917,13.646,54.248,6,41.458,6S15,13.646,15,35.1C15,55.646,38.532,80.837,39.532,81.9Zm1.926-70.607c6.363,0,21.167,2.32,21.167,23.812,0,15.243-15.621,34.613-21.167,41.008C35.91,69.717,20.292,50.365,20.292,35.1,20.292,13.612,35.1,11.292,41.458,11.292Z" transform="translate(23.042 8.463)" fill="#85817e"/>
    <path id="Path_19" data-name="Path 19" d="M33.229,37.458A13.229,13.229,0,1,0,20,24.229,13.244,13.244,0,0,0,33.229,37.458Zm0-21.167a7.937,7.937,0,1,1-7.937,7.937A7.947,7.947,0,0,1,33.229,16.292Z" transform="translate(31.271 16.692)" fill="#ffa987"/>
  </g>
</svg>
