<svg xmlns="http://www.w3.org/2000/svg" width="58.128" height="63.11" viewBox="0 0 58.128 63.11">
  <g id="painting-roller-painting-roller" transform="translate(-499.208 590.775)">
    <g id="painting-roller-painting-roller_1_" transform="translate(494.226 -590.775)">
      <g id="Group_4" data-name="Group 4" transform="translate(29.894 11.569)">
        <path id="Path_2" data-name="Path 2" d="M504.8,413.011h-3.322V400.328a1.66,1.66,0,0,1,1.661-1.661h28.233V385.325h3.322v15a1.66,1.66,0,0,1-1.661,1.661H504.8v11.022Z" transform="translate(-501.474 -385.325)" fill="#ffa987"/>
      </g>
      <g id="Group_5" data-name="Group 5" transform="translate(25.742 36.537)">
        <path id="Path_3" data-name="Path 3" d="M486.783,570.151H475.157V543.579h11.626v26.573Zm-8.3-3.322h4.982V546.9h-4.982V566.83Z" transform="translate(-475.157 -543.579)" fill="#ffa987"/>
      </g>
      <g id="Group_6" data-name="Group 6" transform="translate(4.982)">
        <path id="Path_4" data-name="Path 4" d="M391.741,331.929h-46.5a1.66,1.66,0,0,1-1.661-1.661V313.66A1.66,1.66,0,0,1,345.239,312h46.5a1.66,1.66,0,0,1,1.661,1.661v16.608a1.66,1.66,0,0,1-1.661,1.661ZM346.9,328.608h43.18V315.321H346.9v13.286Z" transform="translate(-343.579 -312)" fill="#ffa987"/>
      </g>
      <g id="Group_7" data-name="Group 7" transform="translate(51.484 9.908)">
        <path id="Path_5" data-name="Path 5" d="M648.281,378.12h-8.3a1.661,1.661,0,0,1,0-3.322h8.3a1.661,1.661,0,1,1,0,3.322Z" transform="translate(-638.316 -374.798)" fill="#ffa987"/>
      </g>
    </g>
  </g>
</svg>
