<svg xmlns="http://www.w3.org/2000/svg" width="127.679" height="127.679" viewBox="0 0 127.679 127.679">
  <g id="papier" transform="translate(-1 -1)">
    <path id="Path_16" data-name="Path 16" d="M102.079,16.96A15.976,15.976,0,0,0,86.119,1H16.96A15.951,15.951,0,0,0,14.3,32.68v80.039a15.976,15.976,0,0,0,15.96,15.96h82.459a15.976,15.976,0,0,0,15.96-15.96v-2.66h-26.6Zm-95.759,0A10.651,10.651,0,0,1,16.96,6.32h57.3a15.866,15.866,0,0,0,0,21.28H16.96A10.651,10.651,0,0,1,6.32,16.96Zm13.3,95.759V32.92h66.5V27.6a10.64,10.64,0,1,1,10.64-10.64v95.759a15.878,15.878,0,0,0,4.1,10.64H30.26A10.651,10.651,0,0,1,19.62,112.719Zm103.4,2.66a10.64,10.64,0,0,1-20.6,0Z" fill="#85817e"/>
    <rect id="Rectangle_31" data-name="Rectangle 31" width="10" height="4" transform="translate(30 43.679)" fill="#85817e"/>
    <rect id="Rectangle_32" data-name="Rectangle 32" width="37" height="4" transform="translate(49 43.679)" fill="#ffa987"/>
    <rect id="Rectangle_33" data-name="Rectangle 33" width="10" height="6" transform="translate(30 56.679)" fill="#85817e"/>
    <rect id="Rectangle_34" data-name="Rectangle 34" width="37" height="6" transform="translate(49 56.679)" fill="#ffa987"/>
    <rect id="Rectangle_35" data-name="Rectangle 35" width="10" height="8" transform="translate(30 68.679)" fill="#85817e"/>
    <rect id="Rectangle_36" data-name="Rectangle 36" width="37" height="8" transform="translate(49 68.679)" fill="#ffa987"/>
    <rect id="Rectangle_37" data-name="Rectangle 37" width="10" height="7" transform="translate(30 82.679)" fill="#85817e"/>
    <rect id="Rectangle_38" data-name="Rectangle 38" width="37" height="7" transform="translate(49 82.679)" fill="#ffa987"/>
    <rect id="Rectangle_39" data-name="Rectangle 39" width="10" height="5" transform="translate(30 97.679)" fill="#85817e"/>
    <rect id="Rectangle_40" data-name="Rectangle 40" width="37" height="5" transform="translate(49 97.679)" fill="#ffa987"/>
    <rect id="Rectangle_41" data-name="Rectangle 41" width="10" height="5" transform="translate(30 109.679)" fill="#85817e"/>
    <rect id="Rectangle_42" data-name="Rectangle 42" width="37" height="5" transform="translate(49 109.679)" fill="#ffa987"/>
  </g>
</svg>
