<svg xmlns="http://www.w3.org/2000/svg" xmlns:xlink="http://www.w3.org/1999/xlink" width="23.001" height="48.99" viewBox="0 0 23.001 48.99">
  <defs>
    <clipPath id="clip-path">
      <rect width="23.001" height="48.99" fill="none"/>
    </clipPath>
  </defs>
  <g id="polkole" clip-path="url(#clip-path)">
    <g id="Group_9" data-name="Group 9" transform="translate(-1714.999 -1044.005)">
      <g id="Subtraction_1" data-name="Subtraction 1" transform="translate(9001 2241)" fill="none">
        <path d="M-7260-1148.019h0a28.225,28.225,0,0,1-18.417-7.47A23.225,23.225,0,0,1-7286-1172.5a23.228,23.228,0,0,1,7.581-17.011,28.231,28.231,0,0,1,18.419-7.472Zm27.086-17.869h0v-13.231a22.4,22.4,0,0,1,1,6.619A22.392,22.392,0,0,1-7232.914-1165.887Z" stroke="none"/>
        <path d="M -7262.00048828125 -1150.16552734375 L -7262.00048828125 -1194.836303710938 C -7267.728515625 -1194.214599609375 -7273.01123046875 -1191.845458984375 -7277.05078125 -1188.052368164063 C -7281.5322265625 -1183.845092773438 -7284.00048828125 -1178.321655273438 -7284.00048828125 -1172.499633789063 C -7284.00048828125 -1166.677734375 -7281.53271484375 -1161.154663085938 -7277.05078125 -1156.947875976563 C -7273.01123046875 -1153.155029296875 -7267.72802734375 -1150.786376953125 -7262.00048828125 -1150.16552734375 M -7260.00048828125 -1148.018676757813 L -7260.00244140625 -1148.018676757813 L -7260.00244140625 -1148.019775390625 C -7267.00390625 -1148.259521484375 -7273.544921875 -1150.912719726563 -7278.419921875 -1155.48974609375 C -7283.30859375 -1160.078857421875 -7286.00048828125 -1166.119750976563 -7286.00048828125 -1172.499633789063 C -7286.00048828125 -1178.879638671875 -7283.30859375 -1184.9208984375 -7278.419921875 -1189.510498046875 C -7273.54443359375 -1194.08837890625 -7267.0029296875 -1196.741943359375 -7260.00048828125 -1196.982543945313 L -7260.00048828125 -1148.018676757813 Z M -7232.9140625 -1165.887329101563 L -7232.916015625 -1165.887573242188 L -7232.916015625 -1179.118408203125 C -7232.2529296875 -1176.972045898438 -7231.91796875 -1174.7451171875 -7231.91796875 -1172.499633789063 C -7231.91796875 -1170.25341796875 -7232.2529296875 -1168.028686523438 -7232.9140625 -1165.887329101563 Z" stroke="none" fill="#FFA987"/>
      </g>
      <line id="Line_38" data-name="Line 38" y1="47" transform="translate(1740 1045)" fill="none" stroke="#fff" stroke-width="2"/>
    </g>
  </g>
</svg>
