<svg xmlns="http://www.w3.org/2000/svg" width="45.375" height="49.265" viewBox="0 0 45.375 49.265">
  <g id="roler-white" transform="translate(-496.208 644.775)">
    <g id="painting-roller-painting-roller_1_" transform="translate(496.208 -644.775)">
      <g id="Group_4" data-name="Group 4" transform="translate(19.447 9.031)">
        <path id="Path_2" data-name="Path 2" d="M504.067,406.937h-2.593v-9.9a1.3,1.3,0,0,1,1.3-1.3h22.039V385.325H527.4v11.712a1.3,1.3,0,0,1-1.3,1.3H504.067v8.6Z" transform="translate(-501.474 -385.325)" fill="#fff"/>
      </g>
      <g id="Group_5" data-name="Group 5" transform="translate(16.205 28.522)">
        <path id="Path_3" data-name="Path 3" d="M484.232,564.322h-9.075V543.579h9.075v20.743Zm-6.482-2.593h3.889V546.172H477.75v15.557Z" transform="translate(-475.157 -543.579)" fill="#fff"/>
      </g>
      <g id="Group_6" data-name="Group 6" transform="translate(0)">
        <path id="Path_4" data-name="Path 4" d="M381.175,327.557h-36.3a1.3,1.3,0,0,1-1.3-1.3V313.3a1.3,1.3,0,0,1,1.3-1.3h36.3a1.3,1.3,0,0,1,1.3,1.3V326.26a1.3,1.3,0,0,1-1.3,1.3Zm-35-2.593h33.707V314.593H346.171v10.372Z" transform="translate(-343.579 -312)" fill="#fff"/>
      </g>
      <g id="Group_7" data-name="Group 7" transform="translate(36.3 7.734)">
        <path id="Path_5" data-name="Path 5" d="M646.095,377.391h-6.482a1.3,1.3,0,0,1,0-2.593h6.482a1.3,1.3,0,1,1,0,2.593Z" transform="translate(-638.316 -374.798)" fill="#fff"/>
      </g>
    </g>
  </g>
</svg>
